  0
SECTION
  2
HEADER
  9
$MEASUREMENT
  70
  1
  9
$INSUNITS
  70
  4
  0
ENDSEC
  0
SECTION
  2
TABLES
  0
TABLE
  2
LTYPE
 70
     1
  0
LTYPE
  2
CONTINUOUS
 70
    64
  3
Ausgezogene Linie
 72
    65
 73
     0
 40
0.0
  0
ENDTAB
  0
TABLE
  2
LAYER
 70
     3
  0
LAYER
  2
Contour
 70
    64
 62
     7
  6
CONTINUOUS
  0
LAYER
  2
Engraving
 70
    64
 62
     7
  6
CONTINUOUS
  0
LAYER
  2
Reference_points
 70
    64
 62
     1
  6
CONTINUOUS
  0
ENDTAB
  0
TABLE
  2
STYLE
 70
     1
  0
STYLE
  2
TXT
 70
    64
 40
0.0
 41
1.0
 50
0.0
 71
     0
 42
3.500000
  3
TXT
  0
ENDTAB
  0
ENDSEC
  0
SECTION
  2
BLOCKS
  0
ENDSEC
  0
SECTION
  2
ENTITIES
  0
ARC
  8
Contour
 62
   7
 39
0.100
  6
CONTINUOUS
 10
116.60000
 20
140.60000
 30
 0
 40
5.00000
 50
0.00000
 51
90.00000
  0
LINE
  8
Contour
 62
   7
 39
0.100
  6
CONTINUOUS
 10
121.60000
 20
140.60000
 30
 0
 11
121.60000
 21
5.00000
  0
ARC
  8
Contour
 62
   7
 39
0.100
  6
CONTINUOUS
 10
116.60000
 20
5.00000
 30
 0
 40
5.00000
 50
-90.00000
 51
0.00000
  0
LINE
  8
Contour
 62
   7
 39
0.100
  6
CONTINUOUS
 10
116.60000
 20
0.00000
 30
 0
 11
5.00000
 21
0.00000
  0
ARC
  8
Contour
 62
   7
 39
0.100
  6
CONTINUOUS
 10
5.00000
 20
5.00000
 30
 0
 40
5.00000
 50
180.00000
 51
270.00000
  0
LINE
  8
Contour
 62
   7
 39
0.100
  6
CONTINUOUS
 10
0.00000
 20
5.00000
 30
 0
 11
0.00000
 21
140.60000
  0
ARC
  8
Contour
 62
   7
 39
0.100
  6
CONTINUOUS
 10
5.00000
 20
140.60000
 30
 0
 40
5.00000
 50
90.00000
 51
180.00000
  0
LINE
  8
Contour
 62
   7
 39
0.100
  6
CONTINUOUS
 10
5.00000
 20
145.60000
 30
 0
 11
116.60000
 21
145.60000
  0
ARC
  8
Contour
 62
   7
 39
0.100
  6
CONTINUOUS
 10
103.14645
 20
82.60355
 30
 0
 40
0.50000
 50
225.00000
 51
405.00000
  0
LINE
  8
Contour
 62
   7
 39
0.100
  6
CONTINUOUS
 10
103.50000
 20
82.95711
 30
 0
 11
103.50000
 21
137.04289
  0
ARC
  8
Contour
 62
   7
 39
0.100
  6
CONTINUOUS
 10
103.14645
 20
137.39645
 30
 0
 40
0.50000
 50
315.00000
 51
495.00000
  0
LINE
  8
Contour
 62
   7
 39
0.100
  6
CONTINUOUS
 10
102.79289
 20
137.75000
 30
 0
 11
19.20711
 21
137.75000
  0
ARC
  8
Contour
 62
   7
 39
0.100
  6
CONTINUOUS
 10
18.85355
 20
137.39645
 30
 0
 40
0.50000
 50
45.00000
 51
225.00000
  0
LINE
  8
Contour
 62
   7
 39
0.100
  6
CONTINUOUS
 10
18.50000
 20
137.04289
 30
 0
 11
18.50000
 21
82.95711
  0
ARC
  8
Contour
 62
   7
 39
0.100
  6
CONTINUOUS
 10
18.85355
 20
82.60355
 30
 0
 40
0.50000
 50
135.00000
 51
315.00000
  0
LINE
  8
Contour
 62
   7
 39
0.100
  6
CONTINUOUS
 10
19.20711
 20
82.25000
 30
 0
 11
102.79289
 21
82.25000
  0
CIRCLE
  8
Contour
 62
   7
 39
0.100
  6
CONTINUOUS
 10
15.00000
 20
65.00100
 30
 0
 40
5.50000
  0
CIRCLE
  8
Contour
 62
   7
 39
0.100
  6
CONTINUOUS
 10
65.00000
 20
15.00000
 30
 0
 40
5.50000
  0
CIRCLE
  8
Contour
 62
   7
 39
0.100
  6
CONTINUOUS
 10
65.00000
 20
65.00000
 30
 0
 40
5.50000
  0
CIRCLE
  8
Contour
 62
   7
 39
0.100
  6
CONTINUOUS
 10
40.00000
 20
65.00100
 30
 0
 40
5.50000
  0
CIRCLE
  8
Contour
 62
   7
 39
0.100
  6
CONTINUOUS
 10
40.00000
 20
40.00000
 30
 0
 40
5.50000
  0
CIRCLE
  8
Contour
 62
   7
 39
0.100
  6
CONTINUOUS
 10
65.00000
 20
40.00000
 30
 0
 40
5.50000
  0
CIRCLE
  8
Contour
 62
   7
 39
0.100
  6
CONTINUOUS
 10
19.00000
 20
15.00000
 30
 0
 40
3.50000
  0
CIRCLE
  8
Contour
 62
   7
 39
0.100
  6
CONTINUOUS
 10
98.00000
 20
40.00000
 30
 0
 40
4.00000
  0
CIRCLE
  8
Contour
 62
   7
 39
0.100
  6
CONTINUOUS
 10
116.60000
 20
5.00000
 30
 0
 40
2.00000
  0
CIRCLE
  8
Contour
 62
   7
 39
0.100
  6
CONTINUOUS
 10
116.60000
 20
140.60000
 30
 0
 40
2.00000
  0
CIRCLE
  8
Contour
 62
   7
 39
0.100
  6
CONTINUOUS
 10
5.00000
 20
140.60000
 30
 0
 40
2.00000
  0
CIRCLE
  8
Contour
 62
   7
 39
0.100
  6
CONTINUOUS
 10
5.00000
 20
5.00000
 30
 0
 40
2.00000
  0
CIRCLE
  8
Contour
 62
   7
 39
0.100
  6
CONTINUOUS
 10
16.00000
 20
85.25000
 30
 0
 40
1.00000
  0
CIRCLE
  8
Contour
 62
   7
 39
0.100
  6
CONTINUOUS
 10
16.00100
 20
134.75000
 30
 0
 40
1.00000
  0
CIRCLE
  8
Contour
 62
   7
 39
0.100
  6
CONTINUOUS
 10
106.25000
 20
134.75000
 30
 0
 40
1.00000
  0
CIRCLE
  8
Contour
 62
   7
 39
0.100
  6
CONTINUOUS
 10
106.25000
 20
85.25000
 30
 0
 40
1.00000
  0
CIRCLE
  8
Contour
 62
   7
 39
0.100
  6
CONTINUOUS
 10
98.00000
 20
52.50000
 30
 0
 40
1.50000
  0
CIRCLE
  8
Contour
 62
   7
 39
0.100
  6
CONTINUOUS
 10
98.00000
 20
27.50000
 30
 0
 40
1.50000
  0
ENDSEC
  0
EOF
